# xmcd CD database file
#
# Track frame offsets:
#	150
#	13277
#	24227
#	38426
#	60437
#	78342
#	94994
#	115199
#	130308
#	145788
#	161287
#	178421
#	196364
#	215238
#	233588
#
# Disc length: 3387 seconds
#
# Revision: 0
# Processed by: cddbd v1.5.1PL2 Copyright (c) Steve Scherf et al.
# Submitted via: CDex 1.51
#
DISCID=c60d390f
DTITLE=Various Artist - La Magia del Sax Vol. 3
DYEAR=2003
DGENRE=Jazz
TTITLE0=Gainsbourg - Yo te amo, yo tampoco
TTITLE1=J. Rodrigo - El concierto de Aranjuez
TTITLE2=J. Pearson - Imágenes (Playa de ensueño)
TTITLE3=H. Zimmer - El círculo de la vida
TTITLE4=A. Vasiglio - La solitudine
TTITLE5=Sting - Frágil
TTITLE6=Williams - Cherish
TTITLE7=V. de Morales - La chica de Ipanema
TTITLE8=Carlos Jobim - Corcovado
TTITLE9=Nitinho - Tristeza
TTITLE10=R. Presley - El amor está alrededor
TTITLE11=Whitlock - Me dejaste sin aliento
TTITLE12=Gessie - Debió ser amor
TTITLE13=T. Rice - ¿Sientes el amor esta noche?
TTITLE14=D. Warren - Porque me amaste
EXTD=YEAR: 2003
EXTT0=
EXTT1=
EXTT2=
EXTT3=
EXTT4=
EXTT5=
EXTT6=
EXTT7=
EXTT8=
EXTT9=
EXTT10=
EXTT11=
EXTT12=
EXTT13=
EXTT14=
PLAYORDER=
